<svg id="Capa_5" data-name="Capa 5" xmlns="http://www.w3.org/2000/svg" viewBox="0 0 255.87 274.62"><defs><style>.cls-1{fill:#9581bb;}.cls-2{fill:#36ae73;stroke:#fff;stroke-miterlimit:10;stroke-width:4px;}.cls-3{fill:#fff;}</style></defs><path class="cls-1" d="M186.81,138.07c-18.7-35-58.16-50.31-88.15-34.28-3.22,1.72-7.18-4.68-9.92-2.41-3.89-.09-6.88,8.55-9.13,9.71-5.22,2.71-10.68,13.6-21.06,18.6-6,2.91-14.08,5.37-15.12,12-.38,2.42.81,8.83.63,11.28-.65,9-8.22,12.45-15.4,17.93-3.3,2.51-6.62,7.34-2.47,7.23,7.27-.2,5.21,8.56,4.82,9.38-3.87,8-11.34,17-12,17.9-1.42,1.88-2.32,7.35,2.12,5,3.75-2,12.22-11.72,19-8.62,2.66,1.22,8.39,5.63,4,14.58C41,222.88,36.66,232.53,30.41,237c-8,5.78,1.31,9.08,7.9.27,6.28-8.37,15.71-20.09,23.19-18.48,10.57,2.28,4.76,7,2.55,12-1.37,3.14,3.42,3.41,5.9,2,5.3-3.09,12.78-14.66,15.13-14.94,5.66-.67,8.36,3.43,7.19,7.11-1.45,4.56-4.12,10.42-8.13,13.8-3.64,3.07-.57,8.13,3.66,5.93,4.83-2.51,9.72-13.34,14.1-15.21,4-1.69,8.93-.34,10.69,4.08,1.54,3.85-.74,8.9,2.13,9.94,15.2,5.57,35.29-2.65,49.2-9.94C194,217.74,205.5,173,186.81,138.07ZM61,144.78c-2.75.39-4.56-4.4.31-7.63s11.08-8.88,15.56-12.89,10.69-3.78,13.12-2.44c5.87,3.21,8.89,9.11,4.49,17.6s-13.28,9.2-18.23,8S63.75,144.38,61,144.78Zm2.29,47.4c-6-1.1-8.8-4.64-6.52-8.33s2.9-7.16.86-7.71-8.1-3.61-7.94-6.44,26.72-11.41,34.5-10c4,.74-6.44,13.84-7.78,18.24S69.35,193.27,63.29,192.18Zm56.13,9.64c-8,4.8-18.23,11.88-26.25,2.92s-5.75-26.41,1.24-34.43,17.68-19.66,24.91-16.2c5.17,2.47,8.18,15.95,8.74,19.81S127.44,197,119.42,201.82Z" transform="translate(-6.56 -3.38)"/><rect class="cls-1" x="73.82" y="210.6" width="143.84" height="10.93" rx="5.47" transform="translate(-118.83 175.91) rotate(-47.89)"/><rect class="cls-1" x="5.31" y="103.15" width="143.84" height="10.93" rx="5.47" transform="translate(-61.69 89.69) rotate(-47.89)"/><rect class="cls-1" x="1.05" y="79.56" width="143.84" height="10.93" rx="5.47" transform="translate(-45.59 78.76) rotate(-47.89)"/><rect class="cls-1" x="5.41" y="145.41" width="17.89" height="10.93" rx="5.47" transform="translate(-113.75 56.97) rotate(-47.89)"/><rect class="cls-1" x="9.98" y="107.5" width="17.89" height="10.93" rx="5.47" transform="translate(-84.12 47.87) rotate(-47.89)"/><rect class="cls-1" x="108.49" y="264.49" width="17.89" height="10.93" rx="5.47" transform="translate(-168.13 172.66) rotate(-47.89)"/><rect class="cls-1" x="103.9" y="200.65" width="143.84" height="10.93" rx="5.47" transform="translate(-101.54 194.95) rotate(-47.89)"/><rect class="cls-1" x="111.11" y="216.85" width="143.84" height="10.93" rx="5.47" transform="translate(-111.19 205.63) rotate(-47.89)"/><path class="cls-2" d="M254.42,149c14.07-38.14,1.31-51.94-16.44-58.49a23.12,23.12,0,0,0-13.12-.78l-11.28-9.63L173.41,45.79l-11.27-9.63a23.22,23.22,0,0,0-2.83-12.84C150.07,6.81,134.45-3.63,99,16.23s-84.48,53.54-68.12,79c11.06,17.23,34.38,13.51,58.84,3.23a24.74,24.74,0,0,0,42.74,22.43c.24-.29.4-.61.62-.89l13.54,11.56c-.25.27-.54.47-.78.75A24.74,24.74,0,0,0,174.64,171c-6.34,25.77-6.36,49.38,12.38,57.62C214.74,240.82,240.34,187.15,254.42,149Z" transform="translate(-6.56 -3.38)"/><circle class="cls-3" cx="196.17" cy="144.48" r="7.55"/><circle class="cls-3" cx="217.18" cy="119.89" r="7.55"/><circle class="cls-3" cx="194.38" cy="121.68" r="7.55"/><circle class="cls-3" cx="218.97" cy="142.69" r="7.55"/><path class="cls-3" d="M140.2,61.37l-9.88-8.44,8.44-9.88a3.9,3.9,0,0,0-.43-5.49l-5.56-4.75a3.9,3.9,0,0,0-5.49.44l-8.44,9.88L109,34.69a3.89,3.89,0,0,0-5.49.43l-4.74,5.55a3.89,3.89,0,0,0,.43,5.49L109,54.6l-8.44,9.88A3.9,3.9,0,0,0,101,70l5.56,4.75a3.89,3.89,0,0,0,5.48-.43l8.45-9.89,9.88,8.44a3.87,3.87,0,0,0,5.48-.43l4.75-5.55A3.9,3.9,0,0,0,140.2,61.37Z" transform="translate(-6.56 -3.38)"/><circle class="cls-3" cx="158.77" cy="143.72" r="14.73"/><circle class="cls-3" cx="107.41" cy="99.85" r="14.73"/></svg>